<?xml version="1.0" encoding="utf-8"?>
<!-- Generator: Adobe Illustrator 17.0.0, SVG Export Plug-In . SVG Version: 6.00 Build 0)  -->
<!DOCTYPE svg PUBLIC "-//W3C//DTD SVG 1.1//EN" "http://www.w3.org/Graphics/SVG/1.1/DTD/svg11.dtd">
<svg version="1.1" id="Layer_1" xmlns="http://www.w3.org/2000/svg" xmlns:xlink="http://www.w3.org/1999/xlink" x="0px" y="0px"
	 width="11px" height="11px" viewBox="0 0 11 11" enable-background="new 0 0 11 11" xml:space="preserve">
<path fill="#666666" d="M10.821,6.646c0,0.01,0,0.019,0,0.029s-0.002,0.017-0.007,0.021c-0.306,1.28-0.945,2.317-1.919,3.112
	S6.78,11,5.471,11c-0.697,0-1.371-0.131-2.023-0.394c-0.652-0.263-1.233-0.637-1.744-1.124l-0.924,0.924
	c-0.091,0.091-0.198,0.136-0.322,0.136s-0.232-0.045-0.322-0.136c-0.043-0.043-0.076-0.092-0.1-0.147S0,10.145,0,10.083V6.875
	c0-0.124,0.045-0.232,0.136-0.322s0.198-0.136,0.322-0.136h3.208c0.124,0,0.232,0.045,0.322,0.136s0.136,0.198,0.136,0.322
	c0,0.062-0.011,0.119-0.032,0.172S4.037,7.15,3.989,7.197L3.008,8.178c0.339,0.315,0.723,0.559,1.153,0.73S5.037,9.167,5.5,9.167
	c0.64,0,1.237-0.155,1.79-0.465s0.998-0.738,1.332-1.282c0.029-0.043,0.074-0.134,0.136-0.272S8.902,6.82,9.002,6.581
	c0.019-0.057,0.047-0.099,0.082-0.125C9.12,6.43,9.164,6.417,9.217,6.417h1.375c0.062,0,0.116,0.023,0.161,0.068
	C10.798,6.53,10.821,6.584,10.821,6.646z M11,0.917v3.208c0,0.124-0.045,0.232-0.136,0.322c-0.091,0.091-0.198,0.136-0.322,0.136
	H7.333c-0.124,0-0.232-0.045-0.322-0.136C6.92,4.357,6.875,4.249,6.875,4.125c0-0.062,0.012-0.121,0.036-0.175
	c0.024-0.055,0.057-0.104,0.1-0.147l0.988-0.988C7.646,2.485,7.262,2.239,6.846,2.077C6.431,1.914,5.982,1.833,5.5,1.833
	c-0.64,0-1.237,0.155-1.79,0.465S2.712,3.036,2.378,3.581C2.354,3.619,2.31,3.708,2.245,3.849C2.181,3.99,2.098,4.18,1.998,4.419
	C1.979,4.471,1.951,4.512,1.916,4.54C1.88,4.569,1.836,4.583,1.783,4.583H0.358c-0.062,0-0.116-0.023-0.161-0.068
	C0.152,4.47,0.129,4.416,0.129,4.354v-0.05c0.31-1.28,0.955-2.317,1.934-3.112S4.187,0,5.5,0c0.697,0,1.375,0.132,2.034,0.397
	s1.244,0.639,1.755,1.121l0.931-0.924c0.091-0.091,0.198-0.136,0.322-0.136c0.124,0,0.232,0.045,0.322,0.136
	c0.048,0.043,0.082,0.092,0.104,0.147S11,0.855,11,0.917z"/>
</svg>
