<?xml version="1.0" encoding="utf-8"?>
<!-- Generator: Adobe Illustrator 17.0.0, SVG Export Plug-In . SVG Version: 6.00 Build 0)  -->
<!DOCTYPE svg PUBLIC "-//W3C//DTD SVG 1.1//EN" "http://www.w3.org/Graphics/SVG/1.1/DTD/svg11.dtd">
<svg version="1.1" id="Layer_1" xmlns="http://www.w3.org/2000/svg" xmlns:xlink="http://www.w3.org/1999/xlink" x="0px" y="0px"
	 width="30px" height="30px" viewBox="0 0 30 30" enable-background="new 0 0 30 30" xml:space="preserve">
<path fill="#EFEFEF" d="M14.335,16.811l-2.378,2.378l1.031,1.031c0.091,0.091,0.136,0.198,0.136,0.322s-0.045,0.232-0.136,0.322
	c-0.043,0.048-0.092,0.082-0.147,0.104C12.787,20.989,12.729,21,12.667,21H9.458c-0.124,0-0.232-0.045-0.322-0.136
	C9.045,20.773,9,20.666,9,20.542v-3.208c0-0.124,0.045-0.232,0.136-0.322c0.091-0.091,0.198-0.136,0.322-0.136
	c0.062,0,0.121,0.011,0.175,0.032s0.104,0.056,0.147,0.104l1.031,1.031l2.378-2.378c0.048-0.048,0.103-0.072,0.165-0.072
	s0.117,0.024,0.165,0.072l0.816,0.816c0.048,0.048,0.072,0.103,0.072,0.165C14.407,16.708,14.383,16.763,14.335,16.811z M20,10.458
	v3.208c0,0.124-0.045,0.232-0.136,0.322c-0.091,0.091-0.198,0.136-0.322,0.136c-0.062,0-0.119-0.012-0.172-0.036
	c-0.053-0.024-0.103-0.057-0.15-0.1l-1.031-1.031l-2.378,2.378c-0.048,0.048-0.103,0.072-0.165,0.072s-0.117-0.024-0.165-0.072
	l-0.816-0.816c-0.048-0.048-0.072-0.103-0.072-0.165s0.024-0.117,0.072-0.165l2.378-2.378l-1.031-1.031
	c-0.091-0.091-0.136-0.198-0.136-0.322c0-0.124,0.045-0.232,0.136-0.322c0.048-0.048,0.098-0.082,0.15-0.104
	C16.214,10.011,16.271,10,16.333,10h3.208c0.124,0,0.232,0.045,0.322,0.136C19.955,10.227,20,10.334,20,10.458z"/>
</svg>
