<?xml version="1.0" encoding="utf-8"?>
<!-- Generator: Adobe Illustrator 17.1.0, SVG Export Plug-In . SVG Version: 6.00 Build 0)  -->
<!DOCTYPE svg PUBLIC "-//W3C//DTD SVG 1.1//EN" "http://www.w3.org/Graphics/SVG/1.1/DTD/svg11.dtd">
<svg version="1.1" id="logo" xmlns="http://www.w3.org/2000/svg" xmlns:xlink="http://www.w3.org/1999/xlink" x="0px" y="0px"
	 viewBox="56.693 62.42 26.458 17.275" enable-background="new 56.693 62.42 26.458 17.275" xml:space="preserve">
<g>
	<path fill="#FFFFFF" d="M58.534,79.696c-0.34-1.963-0.631-4.542-0.837-7.185l-1.001-0.824l0.843,0.693l-0.845-0.691
		c0.036-0.045,0.091-0.125,0.165-0.23c0.16-0.229,0.396-0.563,0.699-0.955c-0.189-3.099-0.25-6.092-0.124-8.084l2.179,0.138
		c-0.091,1.446-0.076,3.493,0.019,5.729c0.884-0.762,1.939-1.449,3.132-1.809c2.017-0.609,3.697-0.546,4.995,0.187
		c1.168,0.66,1.971,1.826,2.386,3.463c0.111,0.436,0.187,0.889,0.229,1.349c0.091-0.016,0.181-0.042,0.271-0.078
		c0.79-0.319,0.82-1.474,0.82-1.485l-0.004-0.804l5.728-1.808v1.489c0,2.072,0.681,4.575,2.174,5.172
		c0.473,0.189,0.843,0.197,1.096,0.026c0.331-0.224,0.51-0.735,0.51-1.103h2.183c0,0.883-0.385,2.175-1.468,2.91
		c-0.611,0.414-1.651,0.784-3.131,0.194c-2.159-0.863-3.17-3.385-3.458-5.738l-1.536,0.485c-0.201,0.969-0.781,2.155-2.096,2.687
		c-0.392,0.158-0.769,0.234-1.131,0.254c-0.168,1.301-0.587,2.543-1.225,3.518c-0.831,1.269-1.989,2.058-3.35,2.282
		c-1.582,0.261-2.916-0.196-3.755-1.285c-0.955-1.24-1.124-3.217-0.411-4.807c0.653-1.457,2.131-3.117,5.462-2.741
		c0.359,0.039,0.699,0.132,1.027,0.243c-0.016-0.075-0.033-0.148-0.052-0.221c-0.263-1.037-0.716-1.744-1.345-2.1
		c-0.758-0.428-1.865-0.428-3.29,0.002c-1.457,0.44-2.715,1.619-3.6,2.648c0.203,2.968,0.518,5.958,0.891,8.108L58.534,79.696z
		 M66.129,72.772c-1.642,0-2.225,0.788-2.547,1.506c-0.379,0.847-0.314,1.981,0.149,2.582c0.125,0.163,0.503,0.654,1.671,0.463
		c0.752-0.124,1.384-0.569,1.878-1.323c0.483-0.738,0.794-1.719,0.907-2.746c-0.094-0.035-0.185-0.07-0.275-0.104
		c-0.407-0.156-0.791-0.303-1.101-0.337C66.566,72.784,66.338,72.772,66.129,72.772z"/>
</g>
</svg>
