<?xml version="1.0" encoding="utf-8"?>
<!-- Generator: Adobe Illustrator 17.0.0, SVG Export Plug-In . SVG Version: 6.00 Build 0)  -->
<!DOCTYPE svg PUBLIC "-//W3C//DTD SVG 1.1//EN" "http://www.w3.org/Graphics/SVG/1.1/DTD/svg11.dtd">
<svg version="1.1" id="Layer_1" xmlns="http://www.w3.org/2000/svg" xmlns:xlink="http://www.w3.org/1999/xlink" x="0px" y="0px"
	 width="30px" height="30px" viewBox="0 0 30 30" enable-background="new 0 0 30 30" xml:space="preserve">
<path fill="#EFEFEF" d="M17.974,10.579v9.842c0,0.157-0.057,0.292-0.172,0.407S17.552,21,17.395,21
	c-0.078,0-0.151-0.015-0.217-0.045s-0.13-0.072-0.19-0.127l-3.012-3.012h-2.37c-0.157,0-0.292-0.057-0.407-0.172
	c-0.115-0.115-0.172-0.25-0.172-0.407v-3.474c0-0.157,0.057-0.292,0.172-0.407c0.115-0.115,0.25-0.172,0.407-0.172h2.37l3.012-3.012
	C17.102,10.057,17.238,10,17.395,10c0.157,0,0.292,0.057,0.407,0.172c0.06,0.054,0.104,0.116,0.131,0.185
	C17.96,10.427,17.974,10.501,17.974,10.579z"/>
</svg>
