<svg width="133" height="40" viewBox="0 0 133 40" fill="none" xmlns="http://www.w3.org/2000/svg">
<rect x="0.5" y="0.5" width="132" height="39" rx="6.5" fill="black"/>
<rect x="0.5" y="0.5" width="132" height="39" rx="6.5" stroke="#A6A6A6"/>
<g clip-path="url(#clip0_401_165)">
<path d="M18.8604 20.8192C19.1028 20.8192 19.3379 20.7237 19.5657 20.5179L26.9053 14.0526C26.5086 13.7881 26.0531 13.6706 25.4212 13.6706H12.3069C11.6751 13.6706 11.2196 13.7881 10.8155 14.0526L18.1551 20.5179C18.3902 20.7237 18.6253 20.8192 18.8604 20.8192ZM10.191 25.1465L15.6278 19.7171L10.1763 14.9122C10.0955 15.0665 10 15.4412 10 15.9481V24.0592C10 24.5294 10.0735 24.8673 10.191 25.1465ZM12.0865 26.3367H25.6416C26.1779 26.3367 26.5967 26.2044 26.8759 26.0134L21.2849 20.4224L20.2122 21.3775C19.7861 21.7523 19.3233 21.9433 18.8604 21.9433C18.4049 21.9433 17.942 21.7523 17.5159 21.3775L16.4433 20.4224L10.8522 26.0134C11.1314 26.2044 11.5429 26.3367 12.0865 26.3367ZM27.5371 25.1465C27.6473 24.8673 27.7282 24.5294 27.7282 24.0592V15.9481C27.7282 15.4412 27.6326 15.0665 27.5518 14.9122L22.1004 19.7171L27.5371 25.1465Z" fill="white"/>
</g>
<path d="M36.9673 25.1523C34.9106 25.1523 33.5522 24.1748 33.438 22.5625L33.4316 22.4673H34.8154L34.8281 22.5498C34.9551 23.394 35.7993 23.9209 37.0244 23.9209C38.2495 23.9209 39.0239 23.3687 39.0239 22.5117V22.5054C39.0239 21.769 38.5225 21.3691 37.3101 21.1025L36.3135 20.8931C34.5171 20.5122 33.6475 19.687 33.6475 18.3286V18.3223C33.6538 16.7607 35.0312 15.688 36.9673 15.688C38.8779 15.688 40.1855 16.729 40.2808 18.2651L40.2871 18.373H38.9033L38.897 18.2842C38.77 17.4336 38.0337 16.9194 36.9482 16.9194C35.812 16.9258 35.0884 17.4653 35.0884 18.2651V18.2715C35.0884 18.957 35.6089 19.376 36.7515 19.6235L37.7544 19.833C39.646 20.2329 40.4585 21.001 40.4585 22.4165V22.4229C40.4585 24.0923 39.1382 25.1523 36.9673 25.1523ZM43.918 25.1333C42.5977 25.1333 41.9629 24.5747 41.9629 23.2417V19.4141H41.0044V18.3223H41.9629V16.583H43.3657V18.3223H44.6162V19.4141H43.3657V23.1592C43.3657 23.8384 43.6704 24.0415 44.248 24.0415C44.394 24.0415 44.5146 24.0288 44.6162 24.0161V25.0762C44.4575 25.1016 44.1973 25.1333 43.918 25.1333ZM47.6123 25.1206C46.2793 25.1206 45.3843 24.3018 45.3843 23.1021V23.0894C45.3843 21.9277 46.2856 21.2168 47.8662 21.1216L49.6816 21.0137V20.5122C49.6816 19.7759 49.2056 19.3315 48.355 19.3315C47.5615 19.3315 47.0728 19.7061 46.9585 20.2393L46.9458 20.2964H45.6509L45.6572 20.2266C45.7524 19.0776 46.749 18.1953 48.3931 18.1953C50.0244 18.1953 51.0591 19.0586 51.0591 20.3979V25H49.6816V23.9463H49.6562C49.269 24.6636 48.4946 25.1206 47.6123 25.1206ZM46.7681 23.0703C46.7681 23.6543 47.2505 24.0225 47.9868 24.0225C48.9517 24.0225 49.6816 23.3687 49.6816 22.499V21.9785L48.0503 22.0801C47.2251 22.1309 46.7681 22.4927 46.7681 23.0576V23.0703ZM53.1665 27.228C52.8999 27.228 52.6143 27.1963 52.4492 27.1646V26.0918C52.5571 26.1172 52.7158 26.1426 52.8999 26.1426C53.5474 26.1426 53.9028 25.9712 54.1313 25.3237L54.2456 25.0063L51.8145 18.3223H53.2998L54.9819 23.7559H55.0264L56.7085 18.3223H58.1558L55.6675 25.311C55.1724 26.6948 54.4741 27.228 53.1665 27.228ZM62.3389 17.2939C61.8945 17.2939 61.5391 16.9385 61.5391 16.5068C61.5391 16.0688 61.8945 15.7134 62.3389 15.7134C62.7896 15.7134 63.1387 16.0688 63.1387 16.5068C63.1387 16.9385 62.7896 17.2939 62.3389 17.2939ZM61.6533 25V18.3223H63.0244V25H61.6533ZM64.4399 25V18.3223H65.811V19.3315H65.8428C66.1919 18.6523 66.8774 18.1953 67.8867 18.1953C69.353 18.1953 70.1973 19.1411 70.1973 20.6772V25H68.8198V20.9375C68.8198 19.9346 68.3501 19.3696 67.3979 19.3696C66.4331 19.3696 65.811 20.0679 65.811 21.1089V25H64.4399ZM76.5068 25.1333C75.1865 25.1333 74.5518 24.5747 74.5518 23.2417V19.4141H73.5933V18.3223H74.5518V16.583H75.9546V18.3223H77.2051V19.4141H75.9546V23.1592C75.9546 23.8384 76.2593 24.0415 76.8369 24.0415C76.9829 24.0415 77.1035 24.0288 77.2051 24.0161V25.0762C77.0464 25.1016 76.7861 25.1333 76.5068 25.1333ZM78.3921 25V15.8403H79.7632V19.4204H79.7949C80.1504 18.646 80.8677 18.1953 81.8643 18.1953C83.2925 18.1953 84.2319 19.2617 84.2319 20.874V25H82.8608V21.1343C82.8608 20.0298 82.3022 19.3696 81.3374 19.3696C80.3916 19.3696 79.7632 20.0933 79.7632 21.1343V25H78.3921ZM88.415 25.1333C86.4536 25.1333 85.2666 23.7939 85.2666 21.6865V21.6802C85.2666 19.5918 86.4727 18.1953 88.3452 18.1953C90.2178 18.1953 91.3667 19.541 91.3667 21.5469V22.0103H86.6377C86.6631 23.2734 87.355 24.0098 88.4468 24.0098C89.2593 24.0098 89.7988 23.5908 89.9702 23.0894L89.9893 23.0386H91.2905L91.2778 23.1084C91.062 24.1685 90.0337 25.1333 88.415 25.1333ZM88.3516 19.3188C87.4629 19.3188 86.7773 19.9219 86.6567 21.0391H90.0083C89.894 19.8838 89.2466 19.3188 88.3516 19.3188ZM95.2388 25V15.8403H96.6606V23.7749H100.926V25H95.2388ZM104.684 25.1333C102.767 25.1333 101.517 23.8066 101.517 21.6611V21.6484C101.517 19.5156 102.78 18.1953 104.678 18.1953C106.582 18.1953 107.852 19.5093 107.852 21.6484V21.6611C107.852 23.813 106.595 25.1333 104.684 25.1333ZM104.69 23.9844C105.763 23.9844 106.449 23.1338 106.449 21.6611V21.6484C106.449 20.1885 105.75 19.3442 104.678 19.3442C103.624 19.3442 102.919 20.1885 102.919 21.6484V21.6611C102.919 23.1401 103.618 23.9844 104.69 23.9844ZM111.781 25.1333C109.864 25.1333 108.613 23.8066 108.613 21.6611V21.6484C108.613 19.5156 109.876 18.1953 111.774 18.1953C113.679 18.1953 114.948 19.5093 114.948 21.6484V21.6611C114.948 23.813 113.691 25.1333 111.781 25.1333ZM111.787 23.9844C112.86 23.9844 113.545 23.1338 113.545 21.6611V21.6484C113.545 20.1885 112.847 19.3442 111.774 19.3442C110.721 19.3442 110.016 20.1885 110.016 21.6484V21.6611C110.016 23.1401 110.714 23.9844 111.787 23.9844ZM116.008 27.2217V18.3223H117.379V19.4712H117.411C117.811 18.6777 118.547 18.1953 119.5 18.1953C121.201 18.1953 122.292 19.5283 122.292 21.6611V21.6675C122.292 23.7939 121.194 25.1333 119.519 25.1333C118.573 25.1333 117.805 24.6509 117.411 23.8765H117.379V27.2217H116.008ZM119.144 23.9526C120.223 23.9526 120.896 23.0767 120.896 21.6675V21.6611C120.896 20.2393 120.217 19.3696 119.144 19.3696C118.103 19.3696 117.373 20.271 117.373 21.6611V21.6675C117.373 23.0513 118.109 23.9526 119.144 23.9526Z" fill="white"/>
<defs>
<clipPath id="clip0_401_165">
<rect width="18" height="12.6735" fill="white" transform="translate(10 13.6633)"/>
</clipPath>
</defs>
</svg>
