<?xml version="1.0" encoding="utf-8"?>
<!-- Generator: Adobe Illustrator 15.0.0, SVG Export Plug-In  -->
<!DOCTYPE svg PUBLIC "-//W3C//DTD SVG 1.1//EN" "http://www.w3.org/Graphics/SVG/1.1/DTD/svg11.dtd" [
	<!ENTITY ns_flows "http://ns.adobe.com/Flows/1.0/">
]>
<svg version="1.1"
	 xmlns="http://www.w3.org/2000/svg" xmlns:xlink="http://www.w3.org/1999/xlink" xmlns:a="http://ns.adobe.com/AdobeSVGViewerExtensions/3.0/"
	 x="0px" y="0px" width="100px" height="65px" viewBox="-0.5 0 100 65" overflow="visible" enable-background="new -0.5 0 100 65"
	 xml:space="preserve">
<defs>
</defs>
<polyline fill="none" stroke="#333333" stroke-width="3" stroke-linecap="round" stroke-linejoin="round" stroke-miterlimit="10" points="
	1.5,40.977 1.5,39.742 1.5,38.508 1.5,37.273 1.5,36.041 1.5,34.809 1.5,33.574 1.5,32.34 1.5,31.106 1.5,29.873 1.5,28.639 
	1.5,27.405 1.5,26.172 1.5,24.938 1.5,23.705 1.5,22.472 1.5,21.238 1.5,20.004 1.5,18.771 1.5,17.537 1.5,16.304 1.5,15.07 
	1.5,13.836 1.5,12.603 1.5,11.369 1.5,10.136 1.5,8.902 1.5,7.668 1.5,6.435 1.5,5.201 1.5,3.967 1.5,2.733 1.5,1.5 2.421,2.733 
	3.342,3.967 4.263,5.201 5.183,6.435 6.104,7.668 7.025,8.902 7.945,10.136 8.866,11.369 9.787,12.603 10.708,13.836 11.629,15.07 
	12.55,16.304 13.471,17.537 14.392,18.771 15.313,20.004 16.233,21.238 17.154,22.472 18.074,23.705 18.995,24.938 19.916,26.172 
	20.837,27.405 21.758,28.639 22.679,29.873 23.6,31.106 24.521,32.34 25.442,33.574 26.362,34.809 27.283,36.041 28.203,37.273 
	29.124,38.508 30.045,39.742 30.966,40.977 30.966,39.742 30.966,38.508 30.966,37.273 30.966,36.041 30.966,34.809 30.966,33.574 
	30.966,32.34 30.966,31.106 30.966,29.873 30.966,28.639 30.966,27.405 30.966,26.172 30.966,24.938 30.966,23.705 30.966,22.472 
	30.966,21.238 30.966,20.004 30.966,18.771 30.966,17.537 30.966,16.304 30.966,15.07 30.966,13.836 30.966,12.603 30.966,11.369 
	30.966,10.136 30.966,8.902 30.966,7.668 30.966,6.435 30.966,5.201 30.966,3.967 30.966,2.733 30.966,1.5 "/>
<path fill="#333333" d="M53.098,21.238c0,1.378-1.123,2.499-2.509,2.499c-1.375,0-2.5-1.121-2.5-2.499
	c0-1.383,1.125-2.501,2.5-2.501C51.975,18.737,53.098,19.855,53.098,21.238z"/>
<path fill="none" stroke="#333333" stroke-width="3" stroke-linecap="round" stroke-linejoin="round" stroke-miterlimit="10" d="
	M68.908,35.973c0,0,1.988,1.332,4.83,2.664c2.841,1.332,6.533,2.663,9.943,2.663c3.408,0,6.819-0.913,9.379-2.581
	c2.559-1.669,4.266-4.091,4.266-7.105c0-3.015-1.648-4.968-4.178-6.468c-2.527-1.5-5.936-2.546-9.451-3.746
	c-3.514-1.2-6.93-2.628-9.467-4.431c-2.535-1.803-4.192-3.977-4.192-6.668c0-2.691,1.54-4.892,4.015-6.419
	C76.527,2.354,79.939,1.5,83.682,1.5c3.743,0,6.932,0.949,9.186,1.898c2.254,0.949,3.57,1.898,3.57,1.898"/>
<polyline fill="none" stroke="#333333" stroke-width="3" stroke-linecap="round" stroke-linejoin="round" stroke-miterlimit="10" points="
	97.326,62.532 95.829,62.532 94.331,62.532 92.834,62.532 91.338,62.532 89.84,62.532 88.342,62.532 86.846,62.532 85.348,62.532 
	83.85,62.532 82.354,62.532 80.855,62.532 79.357,62.532 77.861,62.532 76.363,62.532 74.867,62.532 73.369,62.532 71.872,62.532 
	70.375,62.532 68.879,62.532 67.381,62.532 65.885,62.532 64.387,62.532 62.889,62.532 61.391,62.532 59.895,62.532 58.396,62.532 
	56.898,62.532 55.402,62.532 53.904,62.532 52.408,62.532 50.91,62.532 49.413,62.532 47.916,62.532 46.418,62.532 44.922,62.532 
	43.424,62.532 41.928,62.532 40.43,62.532 38.932,62.532 37.434,62.532 35.938,62.532 34.439,62.532 32.942,62.532 31.445,62.532 
	29.948,62.532 28.451,62.532 26.954,62.532 25.456,62.532 23.959,62.532 22.463,62.532 20.965,62.532 19.469,62.532 17.971,62.532 
	16.473,62.532 14.975,62.532 13.479,62.532 11.98,62.532 10.483,62.532 8.986,62.532 7.489,62.532 5.992,62.532 4.495,62.532 
	2.997,62.532 1.5,62.532 "/>
</svg>
