<?xml version="1.0" encoding="utf-8"?>
<!-- Generator: Adobe Illustrator 17.0.0, SVG Export Plug-In . SVG Version: 6.00 Build 0)  -->
<!DOCTYPE svg PUBLIC "-//W3C//DTD SVG 1.1//EN" "http://www.w3.org/Graphics/SVG/1.1/DTD/svg11.dtd">
<svg version="1.1" id="Layer_1" xmlns="http://www.w3.org/2000/svg" xmlns:xlink="http://www.w3.org/1999/xlink" x="0px" y="0px"
	 width="30px" height="30px" viewBox="0 0 30 30" enable-background="new 0 0 30 30" xml:space="preserve">
<path fill="#EFEFEF" d="M14.5,15.966v3.264c0,0.126-0.046,0.236-0.138,0.328s-0.202,0.138-0.328,0.138
	c-0.063,0-0.121-0.012-0.175-0.036c-0.053-0.024-0.104-0.058-0.153-0.102l-1.049-1.049l-2.419,2.419
	C10.19,20.976,10.134,21,10.071,21c-0.063,0-0.119-0.024-0.168-0.073l-0.83-0.83C9.024,20.048,9,19.992,9,19.929
	c0-0.063,0.024-0.119,0.073-0.168l2.419-2.419l-1.049-1.049c-0.092-0.092-0.138-0.202-0.138-0.328s0.046-0.236,0.138-0.328
	c0.049-0.049,0.1-0.084,0.153-0.106c0.053-0.022,0.112-0.033,0.175-0.033h3.264c0.126,0,0.236,0.046,0.328,0.138
	S14.5,15.84,14.5,15.966z M19.927,11.238l-2.419,2.419l1.049,1.049c0.092,0.092,0.138,0.202,0.138,0.328
	c0,0.126-0.046,0.236-0.138,0.328c-0.044,0.044-0.093,0.078-0.149,0.102c-0.056,0.024-0.115,0.036-0.178,0.036h-3.264
	c-0.126,0-0.236-0.046-0.328-0.138S14.5,15.16,14.5,15.034V11.77c0-0.126,0.046-0.236,0.138-0.328s0.202-0.138,0.328-0.138
	c0.063,0,0.123,0.011,0.178,0.033s0.106,0.057,0.149,0.106l1.049,1.049l2.419-2.419C18.81,10.024,18.866,10,18.929,10
	c0.063,0,0.119,0.024,0.168,0.073l0.83,0.83C19.976,10.952,20,11.008,20,11.071C20,11.134,19.976,11.19,19.927,11.238z"/>
</svg>
