<?xml version="1.0" encoding="utf-8"?>
<!-- Generator: Adobe Illustrator 18.1.0, SVG Export Plug-In . SVG Version: 6.00 Build 0)  -->
<!DOCTYPE svg PUBLIC "-//W3C//DTD SVG 1.1//EN" "http://www.w3.org/Graphics/SVG/1.1/DTD/svg11.dtd">
<svg version="1.1" id="Layer_1" xmlns="http://www.w3.org/2000/svg" xmlns:xlink="http://www.w3.org/1999/xlink" x="0px" y="0px"
	 viewBox="0 0 216.5 75.1" enable-background="new 0 0 216.5 75.1" xml:space="preserve">
<path d="M215.7,63.8c0,6.5-4.8,10.6-11.3,10.6H12.6C6,74.4,0.7,69.1,0.7,62.5v-50C0.7,6,6,0.8,12.6,0.8h191.8
	c6.5,0,11.3,5.3,11.3,11.8V63.8z"/>
<g>
	<g>
		<path fill="#FFFFFF" d="M147.7,53.6l-1.6,1.5c-0.4,0.2-0.7,0.4-1.1,0.6c-1.1,0.5-2.3,0.6-3.3,0.6c-1.1,0-2.8-0.1-4.5-1.3
			c-2.4-1.7-3.4-4.6-3.4-7.1c0-5.2,4.3-7.8,7.7-7.8c1.2,0,2.5,0.3,3.5,0.9c1.7,1.1,2.1,2.6,2.4,3.3l-7.9,3.2l-2.6,0.2
			c0.8,4.3,3.7,6.8,7,6.8C145.3,54.6,146.5,54.1,147.7,53.6C147.6,53.5,147.8,53.4,147.7,53.6z M142.9,45.1c0.6-0.2,1-0.4,1-0.9
			c0-1.3-1.5-2.9-3.3-2.9c-1.3,0-3.9,1-3.9,4.7c0,0.6,0.1,1.2,0.1,1.8L142.9,45.1z"/>
		<path fill="#FFFFFF" d="M131.1,53.3c0,1.3,0.2,1.5,1.3,1.6c0.6,0.1,1.2,0.1,1.7,0.2l-1.2,0.7h-5.9c0.8-1,0.9-1.1,0.9-1.8v-0.8
			l0-20.1h-2.6l2.5-1.2h4.8c-1,0.6-1.4,1-1.5,2.2L131.1,53.3z"/>
		<path fill="#FFFFFF" d="M121.8,41.8c0.8,0.6,2.4,2,2.4,4.6c0,2.5-1.4,3.7-2.8,4.8c-0.4,0.4-0.9,0.9-0.9,1.7c0,0.7,0.5,1.2,0.9,1.5
			l1.2,0.9c1.5,1.3,2.8,2.4,2.8,4.7c0,3.2-3.1,6.4-8.9,6.4c-4.9,0-7.3-2.3-7.3-4.8c0-1.2,0.6-2.9,2.6-4.1c2.1-1.3,4.9-1.5,6.4-1.5
			c-0.5-0.6-1-1.3-1-2.3c0-0.6,0.2-0.9,0.3-1.3c-0.4,0-0.7,0.1-1.1,0.1c-3.6,0-5.6-2.7-5.6-5.3c0-1.6,0.7-3.3,2.2-4.5
			c1.9-1.6,4.2-1.9,6-1.9h7l-2.2,1.2H121.8z M119.5,56.8c-0.3,0-0.4,0-0.8,0c-0.3,0-2.1,0.1-3.5,0.5c-0.7,0.3-2.9,1.1-2.9,3.5
			c0,2.4,2.3,4.1,5.9,4.1c3.2,0,5-1.6,5-3.6C123.1,59.5,122,58.6,119.5,56.8z M120.4,50.4c0.8-0.8,0.8-1.9,0.8-2.5
			c0-2.4-1.4-6.2-4.3-6.2c-0.9,0-1.8,0.4-2.4,1.1c-0.6,0.7-0.7,1.6-0.7,2.5c0,2.3,1.3,6,4.2,6C119,51.3,119.9,50.9,120.4,50.4z"/>
		<path fill="#FFFFFF" d="M100.9,56.3c-5.4,0-8.2-4.2-8.2-8c0-4.4,3.6-8.2,8.7-8.2c5,0,8.1,3.9,8.1,8
			C109.5,52.1,106.4,56.3,100.9,56.3z M105.1,53.6c0.8-1.1,1-2.4,1-3.7c0-3-1.4-8.6-5.6-8.6c-1.1,0-2.2,0.4-3,1.1
			C96.2,43.5,96,45,96,46.4c0,3.3,1.6,8.8,5.7,8.8C103,55.3,104.4,54.6,105.1,53.6z"/>
		<path fill="#FFFFFF" d="M83,56.3c-5.4,0-8.2-4.2-8.2-8c0-4.4,3.6-8.2,8.7-8.2c5,0,8.1,3.9,8.1,8C91.5,52.1,88.5,56.3,83,56.3z
			 M87.2,53.6c0.8-1.1,1-2.4,1-3.7c0-3-1.4-8.6-5.6-8.6c-1.1,0-2.2,0.4-3,1.1C78.2,43.5,78,45,78,46.4c0,3.3,1.7,8.8,5.7,8.8
			C85.1,55.3,86.4,54.6,87.2,53.6z"/>
		<path fill="#FFFFFF" d="M72.6,55.1l-4.5,1c-1.8,0.3-3.5,0.5-5.2,0.5c-8.7,0-12.1-6.4-12.1-11.5c0-6.1,4.7-11.8,12.8-11.8
			c1.7,0,3.3,0.3,4.8,0.7c2.4,0.7,3.5,1.5,4.2,2L70,38.5l-1.1,0.2l0.8-1.3c-1.1-1-3-3-6.8-3c-5,0-8.8,3.8-8.8,9.3
			c0,5.9,4.3,11.5,11.2,11.5c2,0,3.1-0.4,4-0.8v-5.1l-4.8,0.3l2.5-1.4h6.7L73,49.2c-0.2,0.2-0.3,0.3-0.3,0.5c0,0.3-0.1,1.2-0.1,1.5
			V55.1z"/>
	</g>
	<g>
		<path fill="#FFFFFF" d="M157.4,53.7v8.6h-1.7V40.5h1.7v2.5c1.1-1.6,3.1-2.9,5.5-2.9c4.2,0,7.1,3.2,7.1,8.3c0,5-2.9,8.3-7.1,8.3
			C160.7,56.7,158.7,55.5,157.4,53.7z M168.1,48.4c0-3.8-2-6.8-5.5-6.8c-2.2,0-4.3,1.7-5.2,3.2v7c0.9,1.5,3,3.3,5.2,3.3
			C166.1,55.1,168.1,52.2,168.1,48.4z"/>
		<path fill="#FFFFFF" d="M172.3,56.3V34.4h1.7v21.9H172.3z"/>
		<path fill="#FFFFFF" d="M193.2,60.9c0.4,0.2,1,0.3,1.4,0.3c1,0,1.8-0.4,2.4-1.9l1.2-2.8l-6.7-16h1.9l5.8,13.8l5.7-13.8h1.9
			l-8.2,19.3c-0.9,2-2.2,2.9-4,2.9c-0.6,0-1.3-0.1-1.7-0.2L193.2,60.9z"/>
		<path fill="#FFFFFF" d="M188.2,56.2c-0.1-0.5-0.2-1-0.3-1.4c-0.1-0.4-0.1-0.8-0.1-1.2c-0.6,0.9-1.4,1.6-2.5,2.1
			c-1.1,0.6-2.1,0.8-3.4,0.8c-1.7,0-3-0.4-3.9-1.2c-0.9-0.8-1.4-2-1.4-3.4c0-1.4,0.7-2.6,2-3.5c1.3-0.9,3.1-1.3,5.2-1.3h4v-2
			c0-1.1-0.4-2-1.2-2.7c-0.8-0.6-1.9-1-3.3-1c-1.3,0-2.3,0.3-3.1,0.9c-0.8,0.6-1.2,1.3-1.2,2.2h-1.7l0-0.1c-0.1-1.2,0.5-2.2,1.6-3.2
			c1.2-0.9,2.7-1.4,4.5-1.4c1.9,0,3.4,0.4,4.5,1.3c1.1,0.9,1.7,2.2,1.7,3.8V53c0,0.6,0,1.1,0.1,1.6c0.1,0.5,0.2,1.1,0.3,1.6H188.2z
			 M182.1,55c1.5,0,2.5-0.3,3.6-1c1.1-0.6,1.8-1.5,2.2-2.5v-3h-4c-1.5,0-2.8,0.3-3.8,1c-1,0.7-1.5,1.5-1.5,2.5c0,0.9,0.3,1.6,1,2.2
			C180.1,54.7,181,55,182.1,55z"/>
	</g>
</g>
<g>
	<polygon fill="none" points="28.5,47.5 34,42 34,42 28.5,47.5 11,30 11,30 28.5,47.5 11,65 11,65 28.5,47.5 34,53 34,53 	"/>
	
		<linearGradient id="SVGID_1_" gradientUnits="userSpaceOnUse" x1="517.355" y1="-439.4783" x2="494.2785" y2="-453.9204" gradientTransform="matrix(0.7071 0.7071 -0.7071 0.7071 -651.7621 -9.0128)">
		<stop  offset="0" style="stop-color:#D6FFA1"/>
		<stop  offset="0.3264" style="stop-color:#93E2A7"/>
		<stop  offset="1" style="stop-color:#00A3B5"/>
	</linearGradient>
	<path fill="url(#SVGID_1_)" d="M34,42L12.6,30.3C12,29.9,11.5,29.8,11,30l17.5,17.5L34,42z"/>
	
		<linearGradient id="SVGID_2_" gradientUnits="userSpaceOnUse" x1="503.9379" y1="-451.8153" x2="533.8575" y2="-443.9939" gradientTransform="matrix(0.7071 0.7071 -0.7071 0.7071 -651.7621 -9.0128)">
		<stop  offset="0" style="stop-color:#FF177B"/>
		<stop  offset="0.6721" style="stop-color:#FFA976"/>
		<stop  offset="1" style="stop-color:#FFEC73"/>
	</linearGradient>
	<path fill="url(#SVGID_2_)" d="M34,53l7.3-4c1.5-0.8,1.5-2.1,0-3L34,42l-5.5,5.5L34,53z"/>
	
		<linearGradient id="SVGID_3_" gradientUnits="userSpaceOnUse" x1="520.6406" y1="-428.5235" x2="488.1966" y2="-447.6116" gradientTransform="matrix(0.7071 0.7071 -0.7071 0.7071 -651.7621 -9.0128)">
		<stop  offset="0" style="stop-color:#63FFD4"/>
		<stop  offset="0.4854" style="stop-color:#32A0BA"/>
		<stop  offset="0.8349" style="stop-color:#1262A9"/>
		<stop  offset="1" style="stop-color:#064AA2"/>
	</linearGradient>
	<path fill="url(#SVGID_3_)" d="M11,30c-0.6,0.2-1.1,0.9-1.1,1.9l0,31.3c0,1,0.4,1.6,1,1.8l17.5-17.5L11,30z"/>
	
		<linearGradient id="SVGID_4_" gradientUnits="userSpaceOnUse" x1="532.4197" y1="-443.6791" x2="512.4432" y2="-417.361" gradientTransform="matrix(0.7071 0.7071 -0.7071 0.7071 -651.7621 -9.0128)">
		<stop  offset="0" style="stop-color:#FF4521"/>
		<stop  offset="0.3411" style="stop-color:#D43E65"/>
		<stop  offset="0.7935" style="stop-color:#9F36B9"/>
		<stop  offset="1" style="stop-color:#8A33DB"/>
	</linearGradient>
	<path fill="url(#SVGID_4_)" d="M11,65c0.5,0.2,1,0.1,1.6-0.3L34,53l-5.5-5.5L11,65z"/>
</g>
<g>
	<g>
		<path fill="#FFFFFF" d="M50.7,16.5c0-3.4,2.5-5.5,5.6-5.5c2.1,0,3.4,1,4.3,2.2L59.1,14c-0.6-0.8-1.6-1.4-2.8-1.4
			c-2.1,0-3.7,1.6-3.7,3.9c0,2.2,1.6,3.9,3.7,3.9c1.1,0,2-0.5,2.5-1v-1.6h-3.2v-1.6h5.1v4c-1,1.2-2.5,2-4.4,2
			C53.2,22,50.7,19.8,50.7,16.5z"/>
		<path fill="#FFFFFF" d="M63.1,21.8V11.1h7.3v1.6h-5.4v2.8h5.3v1.6h-5.3v3h5.4v1.6H63.1z"/>
		<path fill="#FFFFFF" d="M75.5,21.8v-9h-3.2v-1.6h8.3v1.6h-3.2v9H75.5z"/>
		<path fill="#FFFFFF" d="M87.2,21.8V11.1H89v10.7H87.2z"/>
		<path fill="#FFFFFF" d="M94.3,21.8v-9H91v-1.6h8.3v1.6h-3.2v9H94.3z"/>
		<path fill="#FFFFFF" d="M105.4,16.5c0-3.2,2.3-5.5,5.5-5.5c3.2,0,5.5,2.3,5.5,5.5c0,3.2-2.3,5.5-5.5,5.5
			C107.7,22,105.4,19.7,105.4,16.5z M114.4,16.5c0-2.2-1.4-3.9-3.5-3.9c-2.2,0-3.5,1.6-3.5,3.9c0,2.2,1.4,3.9,3.5,3.9
			C113,20.3,114.4,18.7,114.4,16.5z"/>
		<path fill="#FFFFFF" d="M125.9,21.8l-5.6-7.6v7.6h-1.9V11.1h1.9l5.5,7.4v-7.4h1.9v10.7H125.9z"/>
	</g>
</g>
</svg>
