<?xml version="1.0" encoding="utf-8"?>
<!-- Generator: Adobe Illustrator 19.2.1, SVG Export Plug-In . SVG Version: 6.00 Build 0)  -->
<svg version="1.1" id="Layer_1" xmlns="http://www.w3.org/2000/svg" xmlns:xlink="http://www.w3.org/1999/xlink" x="0px" y="0px"
	 viewBox="0 0 48 48" style="enable-background:new 0 0 48 48;" xml:space="preserve">
<style type="text/css">
	.st0{fill:#6F96FE;}
</style>
<title>icon_48x48</title>
<desc>Created with Sketch.</desc>
<rect id="Rectangle-2" x="24" class="st0" width="3" height="3"/>
<rect id="Rectangle-2-Copy-22" x="24" y="36" class="st0" width="3" height="3"/>
<rect id="Rectangle-2-Copy-6" x="45" y="18" class="st0" width="3" height="3"/>
<rect id="Rectangle-2-Copy-7" x="42" y="21" class="st0" width="3" height="3"/>
<rect id="Rectangle-2-Copy-14" x="6" y="21" class="st0" width="3" height="3"/>
<rect id="Rectangle-2-Copy-13" x="3" y="18" class="st0" width="3" height="3"/>
<rect id="Rectangle-2-Copy-8" x="39" y="24" class="st0" width="3" height="3"/>
<rect id="Rectangle-2-Copy-15" x="9" y="24" class="st0" width="3" height="3"/>
<rect id="Rectangle-2-Copy-9" x="36" y="27" class="st0" width="3" height="3"/>
<rect id="Rectangle-2-Copy-16" x="12" y="27" class="st0" width="3" height="3"/>
<rect id="Rectangle-2-Copy-10" x="39" y="30" class="st0" width="3" height="3"/>
<rect id="Rectangle-2-Copy-41" x="39" y="33" class="st0" width="3" height="3"/>
<rect id="Rectangle-2-Copy-17" x="9" y="30" class="st0" width="3" height="3"/>
<rect id="Rectangle-2-Copy-24" x="9" y="33" class="st0" width="3" height="3"/>
<rect id="Rectangle-2-Copy-23" x="6" y="36" class="st0" width="3" height="3"/>
<rect id="Rectangle-2-Copy-48" x="6" y="39" class="st0" width="3" height="3"/>
<rect id="Rectangle-2-Copy-11" x="42" y="36" class="st0" width="3" height="3"/>
<rect id="Rectangle-2-Copy-42" x="42" y="39" class="st0" width="3" height="3"/>
<rect id="Rectangle-2-Copy-18" x="3" y="42" class="st0" width="3" height="3"/>
<rect id="Rectangle-2-Copy-5" x="33" y="15" class="st0" width="3" height="3"/>
<rect id="Rectangle-2-Copy-37" x="36" y="15" class="st0" width="3" height="3"/>
<rect id="Rectangle-2-Copy-38" x="39" y="15" class="st0" width="3" height="3"/>
<rect id="Rectangle-2-Copy-39" x="42" y="15" class="st0" width="3" height="3"/>
<rect id="Rectangle-2-Copy-40" x="45" y="15" class="st0" width="3" height="3"/>
<rect id="Rectangle-2-Copy-12" x="3" y="15" class="st0" width="3" height="3"/>
<rect id="Rectangle-2-Copy-28" x="6" y="15" class="st0" width="3" height="3"/>
<rect id="Rectangle-2-Copy-29" x="9" y="15" class="st0" width="3" height="3"/>
<rect id="Rectangle-2-Copy-30" x="12" y="15" class="st0" width="3" height="3"/>
<rect id="Rectangle-2-Copy-31" x="15" y="15" class="st0" width="3" height="3"/>
<rect id="Rectangle-2-Copy-19" x="3" y="45" class="st0" width="3" height="3"/>
<rect id="Rectangle-2-Copy-49" x="6" y="45" class="st0" width="3" height="3"/>
<rect id="Rectangle-2-Copy-50" x="9" y="45" class="st0" width="3" height="3"/>
<rect id="Rectangle-2-Copy-26" x="39" y="45" class="st0" width="3" height="3"/>
<rect id="Rectangle-2-Copy-43" x="42" y="45" class="st0" width="3" height="3"/>
<rect id="Rectangle-2-Copy-44" x="45" y="45" class="st0" width="3" height="3"/>
<rect id="Rectangle-2-Copy-20" x="12" y="42" class="st0" width="3" height="3"/>
<rect id="Rectangle-2-Copy-51" x="15" y="42" class="st0" width="3" height="3"/>
<rect id="Rectangle-2-Copy-25" x="33" y="42" class="st0" width="3" height="3"/>
<rect id="Rectangle-2-Copy-45" x="36" y="42" class="st0" width="3" height="3"/>
<rect id="Rectangle-2-Copy-21" x="18" y="39" class="st0" width="3" height="3"/>
<rect id="Rectangle-2-Copy-52" x="21" y="39" class="st0" width="3" height="3"/>
<rect id="Rectangle-2-Copy-46" x="27" y="39" class="st0" width="3" height="3"/>
<rect id="Rectangle-2-Copy-47" x="30" y="39" class="st0" width="3" height="3"/>
<rect id="Rectangle-2-Copy-27" x="45" y="42" class="st0" width="3" height="3"/>
<rect id="Rectangle-30-Copy" x="27" y="18" class="st0" width="3" height="3"/>
<rect id="Rectangle-30-Copy-2" x="27" y="21" class="st0" width="3" height="3"/>
<rect id="Rectangle-30-Copy-3" x="27" y="24" class="st0" width="3" height="3"/>
<rect id="Rectangle-30-Copy-6" x="21" y="18" class="st0" width="3" height="3"/>
<rect id="Rectangle-30-Copy-5" x="21" y="21" class="st0" width="3" height="3"/>
<rect id="Rectangle-30-Copy-4" x="21" y="24" class="st0" width="3" height="3"/>
<rect id="Rectangle-2-Copy-3" x="18" y="9" class="st0" width="3" height="3"/>
<rect id="Rectangle-2-Copy-32" x="18" y="12" class="st0" width="3" height="3"/>
<rect id="Rectangle-2-Copy" x="21" y="3" class="st0" width="3" height="3"/>
<rect id="Rectangle-2-Copy-2" x="27" y="3" class="st0" width="3" height="3"/>
<rect id="Rectangle-2-Copy-34" x="27" y="6" class="st0" width="3" height="3"/>
<rect id="Rectangle-2-Copy-35" x="30" y="9" class="st0" width="3" height="3"/>
<rect id="Rectangle-2-Copy-36" x="30" y="12" class="st0" width="3" height="3"/>
<rect id="Rectangle-2-Copy-33" x="21" y="6" class="st0" width="3" height="3"/>
</svg>
