<?xml version="1.0" encoding="utf-8"?>
<!-- Generator: Adobe Illustrator 17.0.0, SVG Export Plug-In . SVG Version: 6.00 Build 0)  -->
<!DOCTYPE svg PUBLIC "-//W3C//DTD SVG 1.1//EN" "http://www.w3.org/Graphics/SVG/1.1/DTD/svg11.dtd">
<svg version="1.1" id="Layer_1" xmlns="http://www.w3.org/2000/svg" xmlns:xlink="http://www.w3.org/1999/xlink" x="0px" y="0px"
	 width="30px" height="30px" viewBox="0 0 30 30" enable-background="new 0 0 30 30" xml:space="preserve">
<path fill="#EFEFEF" d="M20,10.917v3.208c0,0.124-0.045,0.232-0.136,0.322s-0.198,0.136-0.322,0.136h-3.208
	c-0.1,0-0.185-0.024-0.254-0.072s-0.125-0.119-0.168-0.215c-0.038-0.095-0.049-0.184-0.032-0.265
	c0.017-0.081,0.061-0.158,0.132-0.229l0.988-0.988c-0.353-0.329-0.738-0.575-1.153-0.738c-0.415-0.162-0.864-0.243-1.346-0.243
	c-0.497,0-0.97,0.097-1.422,0.29s-0.841,0.455-1.171,0.784c-0.329,0.329-0.591,0.72-0.784,1.171s-0.29,0.925-0.29,1.422
	s0.097,0.97,0.29,1.422s0.455,0.841,0.784,1.171c0.329,0.329,0.72,0.591,1.171,0.784s0.925,0.29,1.422,0.29
	c0.568,0,1.105-0.124,1.611-0.372c0.506-0.248,0.933-0.599,1.282-1.053c0.019-0.024,0.042-0.043,0.068-0.057
	c0.026-0.014,0.058-0.024,0.097-0.029c0.033,0,0.066,0.005,0.097,0.014c0.031,0.01,0.058,0.026,0.082,0.05l0.981,0.988
	c0.043,0.038,0.066,0.087,0.068,0.147s-0.016,0.113-0.054,0.161c-0.52,0.63-1.151,1.118-1.891,1.465
	C16.102,20.827,15.321,21,14.5,21c-0.745,0-1.456-0.146-2.134-0.437c-0.678-0.291-1.263-0.683-1.755-1.174s-0.883-1.077-1.174-1.755
	C9.146,16.956,9,16.245,9,15.5c0-0.745,0.146-1.456,0.437-2.134c0.291-0.678,0.683-1.263,1.174-1.755s1.077-0.883,1.755-1.174
	C13.044,10.146,13.755,10,14.5,10c0.702,0,1.381,0.132,2.037,0.397c0.656,0.265,1.24,0.639,1.751,1.121l0.931-0.924
	c0.072-0.076,0.149-0.123,0.233-0.14c0.084-0.017,0.173-0.004,0.269,0.039c0.095,0.038,0.166,0.093,0.211,0.165
	C19.977,10.73,20,10.816,20,10.917z"/>
</svg>
