<?xml version="1.0" encoding="utf-8"?>
<!-- Generator: Adobe Illustrator 17.0.0, SVG Export Plug-In . SVG Version: 6.00 Build 0)  -->
<!DOCTYPE svg PUBLIC "-//W3C//DTD SVG 1.1//EN" "http://www.w3.org/Graphics/SVG/1.1/DTD/svg11.dtd">
<svg version="1.1" id="Layer_1" xmlns="http://www.w3.org/2000/svg" xmlns:xlink="http://www.w3.org/1999/xlink" x="0px" y="0px"
	 width="30px" height="30px" viewBox="0 0 30 30" enable-background="new 0 0 30 30" xml:space="preserve">
<path fill="#EFEFEF" d="M14.505,10.792v8.416c0,0.134-0.049,0.25-0.147,0.348s-0.214,0.147-0.348,0.147
	c-0.067,0-0.129-0.013-0.186-0.039s-0.111-0.062-0.162-0.108l-2.576-2.576H9.059c-0.134,0-0.25-0.049-0.348-0.147
	c-0.098-0.098-0.147-0.214-0.147-0.348v-2.97c0-0.134,0.049-0.25,0.147-0.348c0.098-0.098,0.214-0.147,0.348-0.147h2.027
	l2.576-2.576c0.098-0.098,0.214-0.147,0.348-0.147c0.134,0,0.25,0.049,0.348,0.147c0.052,0.046,0.089,0.099,0.112,0.159
	S14.505,10.725,14.505,10.792z M16.276,16.818c-0.026,0.01-0.054,0.019-0.085,0.027c-0.031,0.008-0.067,0.012-0.108,0.012
	c-0.134,0-0.25-0.048-0.348-0.143s-0.147-0.213-0.147-0.352c0-0.108,0.031-0.2,0.093-0.275c0.062-0.075,0.137-0.141,0.224-0.197
	c0.088-0.052,0.175-0.11,0.263-0.174c0.088-0.064,0.162-0.156,0.224-0.275c0.062-0.119,0.093-0.266,0.093-0.441
	s-0.031-0.322-0.093-0.441c-0.062-0.119-0.137-0.21-0.224-0.275c-0.088-0.064-0.175-0.125-0.263-0.182
	c-0.088-0.052-0.162-0.115-0.224-0.19c-0.062-0.075-0.093-0.166-0.093-0.275c0-0.139,0.049-0.257,0.147-0.352
	s0.214-0.143,0.348-0.143c0.041,0,0.077,0.003,0.108,0.008c0.031,0.005,0.059,0.015,0.085,0.031c0.361,0.139,0.651,0.379,0.87,0.719
	c0.219,0.34,0.329,0.707,0.329,1.098s-0.11,0.757-0.329,1.095C16.927,16.432,16.637,16.673,16.276,16.818z M17.058,18.643
	c-0.031,0.01-0.063,0.019-0.097,0.027c-0.034,0.008-0.066,0.012-0.097,0.012c-0.139,0-0.258-0.049-0.356-0.147
	c-0.098-0.098-0.147-0.214-0.147-0.348c0-0.103,0.026-0.192,0.077-0.267s0.126-0.138,0.224-0.19
	c0.144-0.077,0.266-0.144,0.364-0.201c0.098-0.057,0.173-0.103,0.224-0.139c0.382-0.278,0.679-0.628,0.893-1.048
	c0.214-0.42,0.321-0.868,0.321-1.342s-0.107-0.922-0.321-1.342c-0.214-0.42-0.512-0.77-0.893-1.048
	c-0.052-0.041-0.126-0.09-0.224-0.147c-0.098-0.057-0.219-0.121-0.364-0.193c-0.098-0.052-0.173-0.116-0.224-0.193
	c-0.052-0.077-0.077-0.165-0.077-0.263c0-0.134,0.049-0.25,0.147-0.348c0.098-0.098,0.214-0.147,0.348-0.147
	c0.036,0,0.071,0.003,0.104,0.008c0.034,0.005,0.066,0.015,0.097,0.031c0.722,0.304,1.302,0.79,1.741,1.458
	c0.438,0.668,0.658,1.396,0.658,2.185s-0.219,1.517-0.658,2.185C18.36,17.853,17.78,18.339,17.058,18.643z M17.839,20.461
	c-0.031,0.015-0.063,0.026-0.097,0.031c-0.034,0.005-0.068,0.008-0.104,0.008c-0.134,0-0.25-0.049-0.348-0.147
	c-0.098-0.098-0.147-0.214-0.147-0.348c0-0.093,0.026-0.178,0.077-0.255c0.052-0.077,0.126-0.144,0.224-0.201
	c0.036-0.021,0.094-0.048,0.174-0.081c0.08-0.034,0.138-0.061,0.174-0.081c0.119-0.067,0.231-0.133,0.336-0.197
	c0.106-0.064,0.205-0.13,0.298-0.197c0.634-0.469,1.129-1.055,1.485-1.756c0.356-0.701,0.534-1.447,0.534-2.236
	s-0.178-1.534-0.534-2.236c-0.356-0.701-0.851-1.287-1.485-1.756c-0.093-0.067-0.192-0.134-0.298-0.201
	c-0.106-0.067-0.218-0.132-0.336-0.193c-0.036-0.021-0.094-0.048-0.174-0.081c-0.08-0.034-0.138-0.061-0.174-0.081
	c-0.098-0.062-0.173-0.13-0.224-0.205c-0.052-0.075-0.077-0.159-0.077-0.251c0-0.134,0.049-0.25,0.147-0.348
	C17.388,9.549,17.504,9.5,17.638,9.5c0.036,0,0.071,0.003,0.104,0.008c0.034,0.005,0.066,0.015,0.097,0.031
	c1.088,0.469,1.96,1.2,2.615,2.193s0.982,2.082,0.982,3.268s-0.327,2.276-0.982,3.268S18.927,19.992,17.839,20.461z"/>
</svg>
